<svg width="39" height="39" viewBox="0 0 39 39" fill="none" xmlns="http://www.w3.org/2000/svg">
<path d="M38.7422 19.3852C38.7422 22.104 38.6875 24.8305 38.7578 27.5493C38.875 32.3618 35.8516 36.0805 32 37.7368C30.4531 38.4008 28.8281 38.7524 27.1484 38.7524C21.8906 38.7602 16.625 38.8305 11.3672 38.729C7.40625 38.6508 4.14844 36.9946 1.8125 33.729C0.585937 32.0102 0 30.0571 0 27.9399C0 22.3383 0 16.7446 0 11.143C0 6.5727 2.22656 3.37739 6.17969 1.29927C7.89844 0.400829 9.76562 0.0180166 11.7109 0.0102041C16.8125 0.0102041 21.9219 -0.0210459 27.0234 0.0258291C30.9844 0.0570791 34.2891 1.5727 36.7266 4.7602C38.0859 6.54145 38.7422 8.58833 38.7422 10.8383C38.7422 13.6821 38.7422 16.5336 38.7422 19.3852ZM2.88281 19.3852C2.88281 22.2524 2.88281 25.1118 2.88281 27.979C2.88281 29.2602 3.17969 30.4633 3.84375 31.5493C5.58594 34.4008 8.21875 35.7915 11.4844 35.8461C16.7266 35.9243 21.9766 35.8774 27.2266 35.8618C28.5156 35.8618 29.7656 35.5961 30.9297 35.0415C34.1016 33.5258 35.875 31.1118 35.8594 27.4868C35.8281 21.9399 35.8516 16.393 35.8516 10.8461C35.8516 9.27583 35.4062 7.83833 34.4766 6.5727C32.6797 4.14302 30.1953 2.9477 27.2266 2.91645C21.9922 2.85395 16.7578 2.89302 11.5234 2.90083C10.4062 2.90083 9.32812 3.12739 8.28125 3.51802C5.40625 4.58833 2.73437 7.29927 2.85937 11.2915C2.95312 13.9946 2.88281 16.6899 2.88281 19.3852Z" fill="white"/>
<path d="M19.4141 27.6665C14.375 27.6665 10.3125 23.6509 10.3047 18.6509C10.2969 13.729 14.3906 9.69777 19.3984 9.69777C24.4219 9.68995 28.5 13.7134 28.5078 18.6743C28.5078 23.6275 24.4375 27.6587 19.4141 27.6665ZM19.4141 24.7759C22.8438 24.7759 25.625 22.0337 25.6172 18.6587C25.6094 15.315 22.8281 12.5806 19.4141 12.5806C15.9844 12.5806 13.1875 15.3071 13.1875 18.6743C13.1953 22.0493 15.9844 24.7837 19.4141 24.7759Z" fill="white"/>
<path d="M29.5626 6.96338C30.6172 6.96338 31.4766 7.86182 31.4766 8.96338C31.4688 10.0649 30.6016 10.9556 29.5469 10.9478C28.5079 10.9399 27.6563 10.0493 27.6563 8.97119C27.6485 7.86963 28.5079 6.96338 29.5626 6.96338Z" fill="white"/>
</svg>
